<svg width="16" height="16" viewBox="0 0 16 16" fill="none" xmlns="http://www.w3.org/2000/svg">
<path d="M6.72388 4.91294C6.53155 4.39751 6.39814 3.86198 6.32621 3.31655C6.28762 3.04355 6.15108 2.79389 5.94203 2.61411C5.73298 2.43433 5.4657 2.3367 5.18999 2.33941L6.46823 6.11164C6.62098 5.95718 6.72624 5.76217 6.77155 5.54972C6.81686 5.33726 6.80032 5.11627 6.72388 4.91294ZM6.72388 4.91294L7.65993 4.56108C7.80364 4.94338 7.83474 5.35886 7.74955 5.7583C7.66437 6.15773 7.46646 6.52437 7.17929 6.81478L7.17535 6.81876L7.17534 6.81875L7.01846 6.97563L13.1973 14.5481C13.1973 14.5481 13.1973 14.5481 13.1973 14.5481C12.9155 14.6434 12.6169 14.6788 12.3206 14.652L12.3026 14.6503C10.4005 14.4436 8.57331 13.794 6.96764 12.7535C5.47402 11.8036 4.20744 10.537 3.25756 9.04339C2.21344 7.43038 1.56364 5.59424 1.36073 3.68348L1.35919 3.66788C1.3325 3.37252 1.36761 3.07483 1.46227 2.79377C1.55693 2.51271 1.70908 2.25445 1.90902 2.03541C2.10896 1.81638 2.35233 1.64138 2.62361 1.52155C2.89489 1.40172 3.18816 1.33969 3.48473 1.33941L3.48567 1.33941L5.18584 1.33941C5.70219 1.3357 6.20248 1.51915 6.59407 1.85592C6.9871 2.19393 7.24381 2.66332 7.31636 3.1766L7.31766 3.18579L7.31762 3.1858C7.37969 3.65645 7.49481 4.11856 7.66078 4.56333L6.72388 4.91294Z" stroke="#4078B8" stroke-width="2" stroke-linecap="round" stroke-linejoin="round"/>
</svg>
