<svg width="145" height="95" viewBox="0 0 145 95" fill="none" xmlns="http://www.w3.org/2000/svg">
<path d="M24.6453 23.6129C24.6453 23.6129 24.6045 23.5823 24.5739 23.5721C24.5739 23.5721 24.3088 35.9934 34.9861 41.796C45.6737 47.5987 45.6737 58.6432 45.6737 58.6432C45.6737 58.6432 22.8097 46.4973 11.755 22.4708C0.700311 -1.54564 0.20061 0.10644 0.20061 0.10644C-0.472461 2.32961 0.741105 6.73517 1.01645 8.95834C3.61695 29.742 10.5822 48.7817 23.9824 64.2012C36.832 78.9781 52.5166 88.0748 66.9366 94.7749C66.8652 94.7443 68.9354 86.0046 69.0068 85.4233C70.7507 72.3494 67.681 56.3691 58.8393 46.8849C49.6101 36.9826 35.802 30.5374 24.6351 23.6231L24.6453 23.6129Z" fill="#2C6AB1"/>
<path d="M133.255 22.4549C122.201 46.4713 99.3365 58.6274 99.3365 58.6274C99.3365 58.6274 99.3365 47.5829 110.024 41.7802C120.712 35.9776 120.436 23.5563 120.436 23.5563C120.416 23.5665 120.395 23.5869 120.365 23.5971C109.198 30.5216 95.3899 36.9668 86.1607 46.8589C77.319 56.343 74.2391 72.3234 75.9932 85.3973C76.0748 85.9684 78.145 94.7081 78.0634 94.7489C92.4834 88.0488 108.168 78.9623 121.018 64.1751C134.428 48.7557 141.383 29.716 143.984 8.93234C144.259 6.70917 145.472 2.30361 144.799 0.0804388C144.799 0.0804388 144.3 -1.57164 133.245 22.4447L133.255 22.4549Z" fill="#2C6AB1"/>
<path d="M80.9254 41.4419C83.7938 38.8558 87.1938 36.611 90.8104 34.5565C96.5537 31.3009 99.3367 24.9734 97.5251 18.9808C97.4988 18.8889 97.466 18.797 97.4398 18.7051C94.2038 21.9213 89.3401 25.5314 82.0609 29.2727C82.0478 29.2793 82.0347 29.2858 82.015 29.2924C81.4636 29.6337 80.8991 29.9685 80.2953 30.3032C76.7443 32.2658 74.5454 34.8322 73.2524 37.6218C71.9593 34.8387 69.7605 32.2658 66.2095 30.3032C65.6056 29.9685 65.0412 29.6337 64.4898 29.2924C64.4767 29.2858 64.4635 29.2793 64.4439 29.2727C57.1581 25.5314 52.3009 21.9213 49.065 18.7051C49.0388 18.797 49.0059 18.8889 48.9797 18.9808C47.1681 24.9734 49.9577 31.3009 55.6944 34.5565C59.311 36.611 62.711 38.8558 65.5794 41.4419C68.7234 44.2774 70.9879 47.94 72.4319 51.9176C72.6551 52.8759 72.9045 53.7554 73.1474 54.5365C73.2393 54.5365 73.1474 54.5365 73.2327 54.5365C73.2327 54.5234 73.2393 54.5103 73.2458 54.4971C73.2458 54.5103 73.2524 54.5234 73.259 54.5365C73.3508 54.5365 73.259 54.5365 73.3443 54.5365C73.5871 53.7554 73.8366 52.8693 74.0597 51.9176C75.5103 47.94 77.7682 44.2708 80.9123 41.4419H80.9254Z" fill="#2C6AB1"/>
<path d="M83.0292 19.7831C85.2072 14.525 82.7102 8.4969 77.4521 6.31892C72.194 4.14094 66.1659 6.63787 63.9879 11.896C61.8099 17.1541 64.3068 23.1822 69.565 25.3602C74.8231 27.5382 80.8512 25.0412 83.0292 19.7831Z" fill="#2C6AB1"/>
</svg>
